<?xml version="1.0" encoding="UTF-8" standalone="no"?>
<!-- Created with Inkscape (http://www.inkscape.org/) -->

<svg
   version="1.1"
   id="svg1"
   width="1983"
   height="793"
   viewBox="0 0 1983 793"
   sodipodi:docname="logo02.svg"
   inkscape:version="1.4.3 (0d15f75, 2025-12-25)"
   xmlns:inkscape="http://www.inkscape.org/namespaces/inkscape"
   xmlns:sodipodi="http://sodipodi.sourceforge.net/DTD/sodipodi-0.dtd"
   xmlns="http://www.w3.org/2000/svg"
   xmlns:svg="http://www.w3.org/2000/svg">
  <defs
     id="defs1" />
  <sodipodi:namedview
     id="namedview1"
     pagecolor="#ffffff"
     bordercolor="#000000"
     borderopacity="0.25"
     inkscape:showpageshadow="2"
     inkscape:pageopacity="0.0"
     inkscape:pagecheckerboard="0"
     inkscape:deskcolor="#d1d1d1"
     inkscape:zoom="0.8623298"
     inkscape:cx="991.5"
     inkscape:cy="396.02018"
     inkscape:window-width="1920"
     inkscape:window-height="1094"
     inkscape:window-x="-11"
     inkscape:window-y="-11"
     inkscape:window-maximized="1"
     inkscape:current-layer="g1" />
  <g
     inkscape:groupmode="layer"
     inkscape:label="Image"
     id="g1">
    <path
       style="fill:#1f2323;fill-opacity:1.0"
       d="m 1302.2225,713.4433 c -4.2358,-2.96686 -1.6616,-10.4433 3.5956,-10.4433 0.7553,0 2.6208,0.88843 4.1458,1.9743 2.7148,1.93307 2.8083,1.93492 4.4791,0.0887 0.9385,-1.03707 3.4649,-5.96455 5.6143,-10.94995 l 3.9078,-9.06438 -8.3113,-19.27434 c -4.5713,-10.60089 -9.3215,-21.81442 -10.556,-24.91895 -2.3313,-5.86282 -5.3052,-9.40491 -8.4006,-10.00556 -0.9916,-0.19241 -1.7791,-0.79983 -1.75,-1.34983 0.032,-0.61052 4.9213,-1 12.5528,-1 7.6273,0 12.523,0.38981 12.559,1 0.033,0.55 -0.9374,1.23523 -2.1553,1.52274 -4.9273,1.16317 -4.7185,2.94377 2.427,20.70179 6.8879,17.11773 8.2653,20.08259 8.9415,19.24651 0.5997,-0.74159 9.9213,-25.98824 11.3794,-30.82032 1.5839,-5.24871 0.5495,-7.83605 -3.7291,-9.32757 -5.2804,-1.84076 -3.0783,-2.61285 7.5775,-2.65683 8.0261,-0.0331 10.5,0.26615 10.5,1.27018 0,0.72242 -1.3049,1.57449 -2.8998,1.89347 -3.8422,0.76844 -6.0034,4.08524 -10.8618,16.67003 -17.3019,44.81707 -21.7028,55.97213 -23.3908,59.28923 -3.3689,6.62014 -10.7879,9.54217 -15.6251,6.15407 z M 547,687.11354 c 0,-0.48755 1.9125,-1.18347 4.25,-1.5465 5.10243,-0.79244 7.32247,-2.31236 8.71069,-5.96363 C 560.61083,677.89339 561,663.20823 561,640.38524 561,596.81986 561.38083,598.53419 551.25,596.4952 549.4625,596.13544 548,595.42684 548,594.92054 548,594.38361 558.74731,594 573.7899,594 c 28.03824,0 33.71142,0.76109 42.0377,5.63963 2.44353,1.43172 5.63013,4.56544 7.31946,7.198 2.75862,4.29889 2.96696,5.25374 2.6724,12.24788 -0.27226,6.46483 -0.75231,8.2101 -3.24928,11.81322 -3.18254,4.5924 -8.63999,8.21629 -15.32018,10.17298 -4.65399,1.3632 -5.06949,2.00328 -2.62001,4.03617 0.8965,0.74403 5.94815,7.43663 11.22589,14.87245 12.55479,17.68845 18.19842,23.51056 24.39412,25.16562 2.6125,0.69787 4.75,1.62553 4.75,2.06145 0,0.43593 -6.05338,0.7926 -13.45196,0.7926 h -13.45196 l -3.215,-4.75 C 599.13831,659.99083 589.28247,646.68031 586.88478,645.44042 585.35278,644.64819 582.05197,644 579.54966,644 H 575 v 18.04545 c 0,17.6607 0.0506,18.09609 2.37444,20.4199 1.45886,1.45886 4.15807,2.64192 7,3.06809 C 594.40517,687.03764 588.01648,688 568,688 c -11.55,0 -21,-0.39891 -21,-0.88646 z m 49.19258,-48.70983 c 19.13545,-6.22395 19.75674,-33.218 0.91752,-39.86486 -5.25348,-1.85354 -19.16989,-2.07906 -20.9101,-0.33885 -1.35061,1.35061 -1.77174,40.87874 -0.45,42.2379 1.09434,1.12534 14.97533,-0.25593 20.44258,-2.03419 z m 112.00551,46.92348 c -7.84259,-3.86505 -8.36763,-15.17776 -1.02272,-22.03579 2.64653,-2.4711 11.8586,-6.79308 22.16395,-10.39856 l 6.83932,-2.39284 -0.36401,-7.35409 c -0.34086,-6.88634 -0.57823,-7.5455 -3.73213,-10.36351 -3.03003,-2.70732 -3.87441,-2.96077 -8.41174,-2.52479 C 717.55119,630.84563 715,633.42948 715,639.03936 715,643.54567 712.92973,646 709.12857,646 c -9.12516,0 -5.86399,-10.47758 4.94185,-15.87733 7.80093,-3.89817 17.73367,-4.3641 24.3857,-1.14391 7.11716,3.44536 7.54388,5.02869 7.54388,27.99127 0,11.98546 0.41979,20.94585 1.03518,22.09571 1.2594,2.3532 3.74824,2.47469 6.80698,0.33226 2.65161,-1.85726 4.06694,-1.07367 2.52864,1.39996 -1.99556,3.20893 -7.55449,6.20204 -11.51868,6.20204 -4.31539,0 -7.40814,-2.38285 -8.44268,-6.50478 l -0.64142,-2.55565 -3.37767,2.57626 c -8.17548,6.23575 -17.52788,8.09575 -24.19226,4.81136 z m 21.10509,-6.02071 C 735.41979,676.22363 736,674.88808 736,663.89159 v -10.10841 l -2.71769,0.6821 c -8.93367,2.24221 -18.65715,9.1957 -19.9255,14.24919 -1.17454,4.67977 0.79204,9.61027 4.58907,11.50542 3.61228,1.80295 6.41508,1.57753 11.3573,-0.91341 z m 229.43734,5.32334 c -6.78239,-2.5269 -13.19426,-8.45909 -16.35321,-15.12982 -2.86616,-6.05245 -3.22912,-16.67314 -0.81221,-23.76639 2.30495,-6.76465 8.18661,-12.90477 15.50959,-16.19113 5.48726,-2.46254 7.07687,-2.73058 13.80822,-2.32836 11.8587,0.70859 20.19458,6.19522 25.30949,16.6586 3.08897,6.31898 3.15335,18.55351 0.13269,25.21667 -2.52034,5.55952 -7.91195,11.13526 -13.61165,14.07649 -5.35059,2.76109 -18.36845,3.55571 -23.98292,1.46394 z m 15.55722,-1.98086 c 4.13213,-1.72652 9.11245,-7.39118 10.82566,-12.31319 0.76132,-2.18724 1.34404,-8.13355 1.35586,-13.83577 0.0189,-9.13314 -0.23932,-10.52012 -2.97926,-16 -3.73499,-7.46997 -7.91931,-10.5 -14.5,-10.5 -9.08209,0 -14.95936,6.72609 -16.99124,19.44518 -1.30774,8.18612 -0.53372,16.33868 2.13793,22.51828 2.49999,5.78256 4.45689,7.90737 9.35331,10.15581 4.81569,2.21137 6.56726,2.2973 10.79774,0.52969 z m 447.94596,1.37513 c -7.1629,-3.25127 -11.0663,-6.91834 -14.2506,-13.38761 -2.5402,-5.16063 -3.0332,-7.37668 -3.1003,-13.9353 -0.098,-9.61835 2.9004,-16.58872 9.7188,-22.59052 11.3225,-9.96647 29.7774,-9.44675 40.1176,1.12978 6.1544,6.2951 8.2269,11.65063 8.2269,21.25956 0,9.60893 -2.0725,14.96446 -8.2269,21.25956 -7.6741,7.8495 -22.6369,10.73493 -32.4855,6.26453 z m 17.0384,-1.39521 c 4.2541,-1.81262 7.1344,-5.06923 9.8542,-11.14134 1.8268,-4.07848 2.2382,-6.8244 2.2572,-15.06546 0.021,-9.18973 -0.2376,-10.59984 -2.9352,-16 C 1444.7677,633.03399 1440.5587,630 1434,630 c -6.5816,0 -10.7654,3.03002 -14.4983,10.5 -2.7473,5.49765 -2.994,6.83726 -2.9475,16 0.041,8.14826 0.4711,10.9504 2.3208,15.13243 4.4921,10.15613 12.3906,14.41225 20.4071,10.99645 z M 815,684.07946 c 0,-0.5063 1.34944,-1.21694 2.99876,-1.57919 5.52683,-1.21389 6.00124,-3.04455 6.00124,-23.15768 0,-10.01681 -0.41214,-19.29641 -0.91587,-20.62132 -0.50374,-1.32492 -2.30374,-2.98381 -4,-3.68642 -1.69627,-0.70262 -3.08382,-1.5604 -3.08343,-1.90617 3.8e-4,-0.34577 3.26288,-1.79486 7.25,-3.22018 3.98711,-1.42533 8.0368,-2.93598 8.9993,-3.35699 1.55919,-0.68202 1.75,-0.0996 1.75,5.3415 0,3.35885 0.16205,6.10699 0.36012,6.10699 0.19807,0 2.10348,-1.64419 4.23424,-3.65376 10.20786,-9.62726 25.02309,-9.95656 31.10131,-0.69131 1.55254,2.3666 1.87411,5.75735 2.30433,24.29775 0.275,11.85102 0.83253,22.05881 1.23895,22.68396 0.40643,0.62515 2.33144,1.43538 4.27779,1.80052 7.11268,1.33435 2.04322,2.56284 -10.57576,2.56284 -12.33148,0 -16.52001,-1.055 -9.93266,-2.50183 1.65457,-0.3634 3.45457,-1.49457 4,-2.51371 0.55117,-1.02988 0.99168,-9.92175 0.99168,-20.01759 0,-14.47028 -0.32079,-18.84062 -1.57727,-21.48847 -1.58059,-3.33085 -6.5232,-6.49861 -10.07386,-6.45644 -3.43095,0.0408 -9.84528,3.64046 -13.10745,7.35586 L 834,643.06959 v 17.53095 c 0,9.67693 0.44428,18.36109 0.99168,19.38392 0.54543,1.01914 2.34543,2.15031 4,2.51371 C 845.67027,683.96504 841.33004,685 828.5,685 820.94349,685 815,684.59472 815,684.07946 Z M 1060.2438,683.75 c 0.2257,-0.6875 1.5803,-1.38921 3.0101,-1.55936 5.1697,-0.61519 5.2233,-0.97352 5.5493,-37.09276 0.1667,-18.47883 -0.071,-35.39788 -0.5275,-37.59788 -0.6587,-3.17221 -1.4975,-4.29603 -4.0531,-5.43047 -1.7724,-0.78675 -3.2226,-1.74899 -3.2226,-2.13829 0,-0.38931 3.2625,-1.82448 7.25,-3.18927 3.9875,-1.36479 8.0375,-2.81321 9,-3.21869 1.637,-0.68966 1.75,0.73301 1.75,22.0364 v 22.77365 l 3.6501,-3.65014 c 5.8111,-5.81104 11.2778,-7.98445 18.8674,-7.50118 5.0732,0.32304 6.9755,0.92296 9.0791,2.86333 4.8753,4.49695 5.4034,7.28138 5.4034,28.48828 0,10.789 0.4373,20.41497 0.9729,21.41575 0.5351,0.99983 2.5601,2.11564 4.5,2.47957 7.4727,1.40188 3.1918,2.57106 -9.4139,2.57106 -12.423,0 -17.0931,-1.02167 -11.3077,-2.47372 5.2261,-1.31167 5.2487,-1.4074 5.2487,-22.24443 0,-16.55967 -0.2553,-19.90539 -1.7061,-22.3614 -1.7689,-2.99463 -6.7293,-5.93669 -9.945,-5.89849 -3.3284,0.0395 -9.8759,3.62717 -12.6615,6.9377 l -2.7299,3.24427 0.2713,19.14803 0.2712,19.14804 3.2284,1.5 c 1.7756,0.825 3.2381,1.8375 3.25,2.25 0.012,0.4125 -5.8659,0.75 -13.0617,0.75 -10.0189,0 -12.9872,-0.29278 -12.6729,-1.25 z M 1183,684.02859 c 0,-0.53427 1.4625,-1.35004 3.25,-1.81281 5.6004,-1.4499 5.7289,-2.35554 5.6356,-39.71578 -0.047,-18.7 -0.387,-35.125 -0.7562,-36.5 -0.3921,-1.46063 -2.0047,-3.12362 -3.8786,-4 -1.7642,-0.825 -3.2173,-1.80055 -3.2292,-2.16788 -0.012,-0.36733 3.4659,-1.86707 7.7284,-3.33276 4.2625,-1.46568 8.3125,-2.89013 9,-3.16545 0.9839,-0.39402 1.25,6.11578 1.25,30.58276 0,17.09583 0.3592,31.08333 0.7983,31.08333 0.439,0 5.5015,-4.45657 11.25,-9.90349 9.0225,-8.5493 10.302,-10.15288 9.3571,-11.72726 -0.6021,-1.00307 -2.0912,-2.059 -3.3091,-2.34651 -1.2179,-0.28751 -2.1895,-0.97274 -2.1591,-1.52274 0.075,-1.34908 23.08,-1.88276 24.3968,-0.56596 1.0654,1.06532 1.1112,1.04238 -5.834,2.91749 -4.6227,1.24805 -22.8056,16.46786 -22.3079,18.67261 0.3835,1.69908 13.4821,17.95623 20.6546,25.6352 3.1861,3.41108 6.5199,5.9819 8.25,6.3619 6.591,1.44762 2.1482,2.47876 -10.68,2.47876 -10.4196,0 -13.4875,-0.29115 -13.1717,-1.25 0.2264,-0.6875 1.3889,-1.3938 2.5833,-1.56955 1.1944,-0.17575 2.1717,-0.87123 2.1717,-1.54549 0,-0.93081 -8.498,-12.28672 -17.5604,-23.46598 -0.1476,-0.18206 -1.2068,0.17127 -2.354,0.78518 -1.9069,1.02056 -2.0843,1.99151 -2.0703,11.33102 0.01,5.61815 0.3504,10.74164 0.76,11.38554 0.4096,0.64389 1.9777,1.48017 3.4847,1.8584 6.0397,1.51587 2.0741,2.47088 -10.26,2.47088 -7.7449,0 -13,-0.39268 -13,-0.97141 z M 1202.0086,504.25 c 0,-0.4125 3.2672,-2.75206 7.25,-5.19903 16.0844,-9.88205 35.5161,-25.62444 45.5104,-36.86973 25.8167,-29.04846 35.8666,-57.23747 36.9685,-103.69378 0.927,-39.07744 -2.7612,-54.68786 -14.9097,-63.10678 -3.6249,-2.51209 -5.0634,-2.88068 -11.2423,-2.88068 -5.7049,0 -8.1762,0.53566 -12.6832,2.74903 -9.1801,4.50834 -20.338,13.50838 -39.8673,32.15719 -14.5432,13.8875 -19.308,17.85949 -22.4342,18.70128 -7.4115,1.99571 -14.3005,-0.81013 -21.6009,-8.79798 -8.428,-9.22157 -9.9608,-19.16925 -4.8994,-31.79584 2.95,-7.35927 5.0381,-8.12187 7.7405,-2.82688 2.9455,5.77114 5.6768,7.79198 10.3654,7.66904 3.0575,-0.0802 9.7796,-3.0254 27.6662,-12.12155 43.0393,-21.88751 61.6613,-25.06191 82.346,-14.03711 11.9339,6.36072 23.7629,23.95862 27.2261,40.50413 4.3057,20.57068 4.5939,56.48835 0.6101,76.03236 -8.7454,42.90343 -37.4349,76.12409 -82.661,95.71633 -13.827,5.98992 -35.4189,10.74945 -35.3852,7.8 z M 171,501.08037 c 0,-0.5058 2.3625,-1.68675 5.25,-2.62433 7.19894,-2.33752 35.13276,-13.66433 46.97901,-19.0494 45.81586,-20.82698 69.85621,-42.84573 75.24066,-68.91351 3.76892,-18.24652 -3.14671,-34.31924 -18.15708,-42.19917 -8.56191,-4.4947 -14.83425,-5.64003 -27.70251,-5.05848 -26.95317,1.2181 -52.47803,15.806 -89.27133,51.0201 C 151.76584,425.33178 149.18616,427 143.63124,427 c -14.31994,0 -31.51159,-23.59915 -26.26509,-36.05437 0.82347,-1.9549 2.89308,-11.81044 4.59915,-21.90119 3.65364,-21.60991 7.89483,-42.94518 12.53246,-63.04444 1.84012,-7.975 4.02027,-19.675 4.84477,-26 0.8245,-6.325 2.4266,-13.65584 3.56021,-16.29076 4.63155,-10.76531 17.34929,-20.36691 42.84382,-32.34609 6.45692,-3.03393 11.91357,-5.68994 12.12587,-5.90225 0.2123,-0.2123 -3.51201,-4.52684 -8.27625,-9.58787 -6.38296,-6.78059 -9.70857,-11.32942 -12.63871,-17.28745 -5.06531,-10.29963 -5.97849,-16.14501 -3.06151,-19.59727 l 2.10247,-2.48831 2.18276,3 c 3.99901,5.49627 11.67497,12.39345 16.52496,14.84839 2.63662,1.33458 11.33012,4.49384 19.31889,7.02056 15.29085,4.83625 21.66036,8.14358 28.84226,14.97617 11.55235,10.99045 12.3502,28.55679 1.43472,31.58794 -5.65737,1.571 -8.4329,1.33641 -19.6208,-1.65838 -9.04549,-2.42131 -11.96604,-2.72808 -26.18122,-2.75 -19.56738,-0.0302 -28.05322,2.02854 -34.36084,8.33616 -7.03497,7.03497 -7.42923,12.72439 -2.19248,31.63916 2.53813,9.16751 2.57013,19.04608 0.0888,27.39219 -3.29763,11.09154 -9.87822,41.83694 -11.98233,55.98302 C 147.97848,380.82306 148.29946,384 151.78332,384 c 0.94212,0 10.71379,-4.45425 21.71481,-9.89832 24.13575,-11.94406 34.40444,-16.08405 49.51994,-19.96478 46.90588,-12.04253 88.52104,-1.91576 104.58175,25.44927 C 331.25026,385.80597 334,398.01354 334,408 c 0,29.00332 -16.52159,51.2578 -50.5,68.02317 -7.7,3.79928 -18.725,8.52707 -24.5,10.5062 -14.02155,4.80528 -42.85163,11.85106 -56.68189,13.85247 C 190.19344,502.13643 171,502.56453 171,501.08037 Z m 1364,-1.51519 c -23.1391,-3.34575 -40.6366,-10.85348 -53.8881,-23.12208 -18.7317,-17.34219 -21.1712,-39.27781 -6.8009,-61.15122 6.7096,-10.21284 10.2688,-14.04076 11.7314,-12.6172 0.9392,0.91407 0.4717,2.91072 -2.1071,9 -2.7896,6.58691 -3.3236,9.09137 -3.3747,15.82532 -0.051,6.78614 0.3585,8.85342 2.7016,13.62454 5.4565,11.11107 17.0296,18.98165 34.6598,23.57142 12.4455,3.23997 37.8994,4.24992 51.2873,2.03497 17.49,-2.89362 29.9747,2.20637 33.8038,13.80885 4.3979,13.32563 -7.9072,19.1842 -42.0131,20.00294 -10.7712,0.25857 -19.7984,-0.0808 -26,-0.97754 z m 234.6341,-8.15164 c -13.7655,-3.33191 -25.2183,-12.73565 -28.262,-23.20557 -4.1497,-14.27444 1.5733,-26.58596 15.6818,-33.73529 9.6376,-4.88375 18.318,-6.63315 35.7377,-7.20235 l 16.2917,-0.53235 -0.5275,-4.11899 c -0.5285,-4.12678 -1.9768,-53.11111 -3.0914,-104.55624 -0.3531,-16.29851 -1.0284,-28.27466 -1.6634,-29.5 -0.5879,-1.13451 -3.7086,-4.8363 -6.9349,-8.2262 -3.2264,-3.38989 -5.8661,-6.63003 -5.8661,-7.20031 0,-2.14375 3.2272,-2.66796 12.328,-2.00248 11.3712,0.8315 22.7553,5.123 28.7716,10.84617 4.563,4.34067 4.7396,5.93204 1.4593,13.14923 -2.2595,4.97133 -5.5589,23.27709 -5.5589,30.84186 0,2.5434 0.4019,2.94101 3.25,3.21562 7.6521,0.7378 20.2244,-3.3598 29.3642,-9.57045 4.7855,-3.25185 6.6285,-3.26015 15.113,-0.0681 8.7525,3.29296 13.2728,7.54107 13.2728,12.47373 0,6.53404 -5.684,9.43464 -24.5,12.50264 -15.2629,2.48864 -26.4232,1.84658 -35.8893,-2.06472 -1.8336,-0.75764 -1.8727,0.0418 -1.3278,27.12979 0.4989,24.79852 2.063,53.03878 3.2707,59.05199 0.356,1.77286 2.6265,2.84086 13.1882,6.20364 15.0687,4.79777 31.0122,12.41015 37.1443,17.73494 4.6229,4.01432 9.0877,12.1278 9.1041,16.54414 0.014,3.60813 -2.4208,10.18662 -5.1207,13.83842 -1.7304,2.34037 -3.0207,3.03731 -5.6233,3.03731 -4.4058,0 -6.2583,-1.06515 -14.7829,-8.49969 C 1854.9429,469.19722 1835.195,456 1832.291,456 c -0.5683,0 -1.336,2.28173 -1.706,5.07052 -1.4092,10.6232 -9.0199,21.4832 -18.4861,26.37832 -9.9255,5.13268 -29.925,6.99992 -42.4648,3.9647 z m 22.3976,-20.95639 c 8.8264,-2.86869 14.8995,-10.27633 16.4458,-20.05956 l 0.6484,-4.10241 -4.3129,-1.16599 c -22.3793,-6.05014 -45.0387,-3.07553 -51.5616,6.76869 -7.6064,11.47964 6.0264,21.94887 26.7486,20.54149 4.125,-0.28015 9.5393,-1.17215 12.0317,-1.98222 z m -921.78826,18.09424 c -1.60051,-1.34674 -4.32857,-5.1101 -6.06236,-8.36302 -3.41397,-6.40527 -13.50271,-18.30599 -25.56212,-30.1532 l -7.59855,-7.46484 -6.2602,6.78818 c -8.75962,9.49838 -13.72061,10.37098 -24.16466,4.25035 -11.30362,-6.62436 -13.47649,-20.57965 -3.69073,-23.70368 5.29816,-1.6914 9.28082,-4.32629 22.61652,-14.96288 15.27991,-12.18729 28.12438,-21.66201 41.72866,-30.78116 L 872,376.95527 V 342.47763 C 872,321.71373 871.62744,308 871.06335,308 c -0.51516,0 -4.67766,0.89685 -9.25,1.99299 -21.62247,5.18365 -38.7979,0.41536 -48.28628,-13.40537 -3.92387,-5.71548 -5.64945,-11.59056 -3.40207,-11.58299 0.75625,0.003 4.075,1.11687 7.375,2.47627 10.3358,4.25771 22.34327,3.20617 46.28147,-4.05305 l 8.28147,-2.51134 -0.51887,-14.20825 c -0.28538,-7.81454 -0.76204,-21.11728 -1.05925,-29.56164 -0.63495,-18.0401 -0.85034,-18.61882 -10.72595,-28.81767 -5.72029,-5.90753 -6.81973,-7.56184 -6.23982,-9.38896 0.67423,-2.12434 1.04955,-2.19134 8.89636,-1.58819 C 884.43187,199.04412 907,209.78684 907,218.57463 c 0,1.37778 -0.90156,4.27225 -2.00347,6.43218 -1.10191,2.15992 -2.45743,6.07949 -3.01226,8.71016 -1.25075,5.93024 -4.92958,35.65735 -4.47051,36.12434 1.58289,1.61019 15.70374,-7.83913 18.51704,-12.39114 1.17391,-1.89944 3.2703,-3.73862 4.65863,-4.08707 2.50842,-0.62957 9.49516,0.61164 18.50661,3.28776 10.80432,3.20854 13.8786,10.07458 7.55396,16.87088 -4.41444,4.74366 -19.64257,12.93475 -37.19896,20.00902 L 895,299.39404 v 32.40997 c 0,25.55039 0.26456,32.29525 1.25,31.86794 28.59406,-12.39895 33.98613,-14.40715 48.75,-18.15621 15.02439,-3.81522 29.67073,-5.03605 44.28615,-3.69141 32.82315,3.01976 53.70885,17.49147 62.31155,43.17567 1.4378,4.2928 1.8439,8.57286 1.8501,19.5 0.01,12.65852 -0.2466,14.7028 -2.6491,21.3346 -3.7026,10.22047 -8.2539,17.50268 -15.5535,24.88573 -16.0578,16.24142 -40.12151,26.05438 -61.56619,25.10614 -13.00018,-0.57484 -15.86046,-2.37349 -25.15993,-15.82147 -7.87527,-11.38844 -12.00256,-19.03032 -15.51073,-28.71892 -3.79089,-10.46936 -2.1885,-10.79276 7.34922,-1.48322 22.17656,21.646 47.38256,22.61382 68.56373,2.63258 11.6017,-10.94443 16.5972,-23.53171 15.8895,-40.03718 -0.3339,-7.78721 -0.8592,-10.05431 -3.6373,-15.69736 -10.8913,-22.12346 -42.24878,-28.74186 -78.66912,-16.60413 -10.2213,3.40643 -28.27884,11.83453 -39.75438,18.55479 l -7.75,4.53852 5.8e-4,12.15496 c 3.2e-4,6.68523 0.49435,20.47996 1.09786,30.65496 2.25277,37.98114 1.66981,45.18594 -4.23574,52.35041 C 887.94646,483.10148 877.45818,491 875.06556,491 c -1.05166,0 -3.22161,-1.10188 -4.82212,-2.44861 z m 0.77153,-40.31771 c 0.68188,-2.34542 0.97385,-12.09964 0.78526,-26.23368 L 871.5,399.5 l -12.36712,12 c -6.80191,6.6 -15.10093,15.08281 -18.44225,18.85069 l -6.07513,6.85068 2.44225,1.89142 c 5.35824,4.14973 16.71686,10.37109 22.8437,12.51198 7.63986,2.66957 9.52345,2.09822 11.11352,-3.37109 z M 880,489.60699 c 0,-0.21616 0.69837,-0.661 1.55194,-0.98855 0.88992,-0.34149 1.29132,-0.17385 0.94098,0.39301 C 881.90566,489.96166 880,490.4169 880,489.60699 Z m -447.22884,-2.94327 c -5.4031,-5.00742 -10.30914,-18.71311 -9.54503,-26.66534 0.27993,-2.91323 1.41369,-6.00566 2.97133,-8.10452 1.38528,-1.86662 5.80373,-9.69386 9.81876,-17.39386 20.70722,-39.71212 31.26425,-58.66518 65.17014,-117 32.70445,-56.26774 45.84879,-79.37311 49.09975,-86.30846 4.03807,-8.61449 3.52052,-13.52635 -2.69001,-25.5295 -3.97932,-7.69089 -4.46257,-9.22415 -3.27995,-10.40676 1.18262,-1.18262 2.31711,-1.14594 7.70015,0.24894 9.27285,2.40284 17.87288,6.94624 27.05619,14.29379 16.08977,12.87341 18.83918,22.05655 8.81254,29.43426 -5.30246,3.90161 -34.00773,40.68921 -54.38057,69.69213 C 516.85388,332.62827 487,379.87221 487,382.51799 c 0,0.4167 3.74021,-2.83311 8.31159,-7.22181 18.98806,-18.2293 36.58634,-27.28696 56.18841,-28.91961 7.88942,-0.65711 17.89046,1.2515 24.66336,4.70677 5.44894,2.77984 13.38974,10.29795 16.52171,15.64224 5.08192,8.67165 5.60317,12.03162 6.32552,40.77442 0.41784,16.62605 1.14806,28.46802 1.90053,30.82078 1.61245,5.04169 7.58651,11.55463 12.66792,13.8106 8.93014,3.96469 23.89892,3.02677 36.06337,-2.25967 20.07231,-8.72305 43.69194,-31.99993 64.14836,-63.2175 4.85455,-7.40829 8.79062,-12.47282 9.29877,-11.96467 1.60274,1.60274 -5.87747,26.58844 -13.61813,45.48782 -18.48831,45.14055 -47.59262,68.86479 -84.4118,68.80786 -27.82374,-0.043 -46.84904,-13.73003 -53.49548,-38.48522 -2.13582,-7.95501 -2.93309,-26.87082 -1.82368,-43.26798 1.44908,-21.41744 -0.62384,-31.13774 -8.21191,-38.50718 -7.79251,-7.56799 -21.47857,-8.75399 -33.87245,-2.93529 -23.16221,10.87422 -47.0954,44.54392 -66.11106,93.00636 -3.7326,9.51275 -6.93842,17.14403 -7.12404,16.95842 -0.18562,-0.18562 0.28494,-3.01507 1.04568,-6.28766 0.76074,-3.2726 1.24565,-6.08768 1.07759,-6.25574 -0.16806,-0.16806 -4.29678,5.44707 -9.17494,12.47806 -4.87816,7.031 -9.57298,12.91913 -10.43294,13.08475 -0.85996,0.16561 -2.73431,-0.7839 -4.16522,-2.11002 z M 1606.5,419.50312 c -6.6,-4.12152 -18.525,-10.69811 -26.5,-14.61466 -7.975,-3.91656 -14.65,-7.51868 -14.8333,-8.00473 -0.1834,-0.48605 -1.3084,-0.87734 -2.5,-0.86953 -3.0033,0.0197 -16.6644,-3.37329 -16.6657,-4.1392 -0,-2.21902 22.8313,-2.45265 42.499,-0.43482 7.15,0.73356 13.3375,1.13305 13.75,0.88776 2.4249,-1.44195 -2.3179,-11.10116 -18.0047,-36.66837 -10.7829,-17.57451 -11.7338,-18.80962 -14.1525,-18.38176 -1.426,0.25227 -8.1272,2.0889 -14.8914,4.0814 -42.7781,12.60089 -64.2466,11.16046 -79.5188,-5.33532 -5.9075,-6.38085 -8.8876,-12.66111 -6.6609,-14.0373 0.733,-0.45304 4.15,0.61152 8.2137,2.55897 8.6309,4.13625 15.0825,4.99305 26.4319,3.51024 16.035,-2.09499 51.7294,-11.24439 54.6411,-14.00595 0.4447,-0.4217 -3.5707,-8.52008 -8.9231,-17.99638 -9.1104,-16.1298 -9.8961,-17.20065 -12.3084,-16.77543 -1.4173,0.24982 -8.4269,1.68641 -15.5769,3.19241 -15.1144,3.18353 -25.4922,3.06208 -36.6933,-0.42942 -8.408,-2.62086 -18.3606,-9.24612 -22.2286,-14.79722 -3.9659,-5.69163 -2.7383,-6.97664 4.5476,-4.76026 9.2123,2.80241 21.83,3.02875 34.8743,0.62559 15.0297,-2.76893 25.5464,-5.58297 25.3138,-6.7734 -0.596,-3.0503 -20.5378,-37.64012 -22.9331,-39.77836 -1.5844,-1.41437 -6.0851,-4.12189 -10.0016,-6.01671 -6.7569,-3.26904 -8.6341,-5.31504 -7.626,-8.31171 1.356,-4.03089 18.5388,-7.6893 32.7469,-6.97222 10.5622,0.53307 16.7101,2.35179 18.2831,5.4086 0.5192,1.00906 1.197,4.98466 1.5061,8.83466 0.357,4.44556 2.0051,11.01412 4.5164,18 6.7957,18.9039 7.5194,20.5 9.2943,20.5 3.1512,0 17.7747,-8.06231 20.4605,-11.28039 5.2741,-6.3194 9.301,-7.01618 21.312,-3.68776 13.3801,3.70783 18.2665,7.65305 16.5348,13.35023 -1.6217,5.33546 -7.6492,8.87012 -30.9336,18.14028 -9.3355,3.71672 -17.1418,6.90033 -17.3473,7.07469 -0.6573,0.55759 15.5676,30.32259 17.8364,32.72135 0.4258,0.45013 2.5208,0.089 4.6557,-0.80254 6.2238,-2.59903 19.5072,-10.67964 20.1014,-12.22814 0.3042,-0.79262 -0.877,-2.88639 -2.6744,-4.7409 -1.7706,-1.82675 -2.8426,-3.54734 -2.3823,-3.82353 0.4603,-0.2762 8.9369,-0.395 18.8369,-0.26402 18.828,0.2491 23.0426,1.06336 26.6804,5.15454 5.0721,5.70433 4.0743,12.72998 -2.487,17.51164 -5.052,3.6817 -23.299,12.54395 -37.1285,18.03264 -5.5357,2.19702 -10.439,4.3568 -10.8962,4.79951 -0.9747,0.94387 3.3193,7.91562 25.1868,40.89277 17.6333,26.59187 19.8182,31.33328 18.8337,40.87181 -1.1065,10.72111 -7.4996,17.27967 -16.8403,17.27621 -3.676,-0.001 -6.2057,-1.16111 -16.3489,-7.49527 z M 1004.8681,295.65898 c 0.6121,-0.73756 6.2922,-5.33496 12.6224,-10.21645 6.3302,-4.88149 11.5095,-9.27107 11.5095,-9.75461 0,-3.97698 -14.6156,-15.78911 -27.2779,-22.04568 -4.24714,-2.09857 -7.7221,-4.21075 -7.7221,-4.69373 0,-4.56825 25.7459,-3.56266 43.9731,1.71751 10.5865,3.06673 18.5588,7.2701 24.3949,12.86207 13.0032,12.45927 12.6154,30.02177 -0.7063,31.99105 -2.671,0.39484 -7.503,-0.13234 -13.4901,-1.47179 -10.4222,-2.3317 -16.0208,-2.14429 -32.0317,1.07224 -11.4246,2.29517 -12.783,2.36017 -11.2718,0.53939 z m 214.586,-47.58463 c 0.3146,-0.50911 6.0787,-5.05151 12.809,-10.09421 6.7303,-5.04271 12.3472,-9.46366 12.4819,-9.82435 0.1348,-0.36068 -4.0741,-2.85356 -9.353,-5.53973 -13.7734,-7.00854 -31.392,-21.66767 -31.392,-26.11894 0,-1.85904 -1.3794,-2.00818 13.1424,1.42106 14.6402,3.4572 21.3028,4.50397 41.505,6.52089 18.0596,1.803 24.2022,3.82199 31.448,10.33659 5.6582,5.08724 7.9046,9.24921 7.9046,14.64517 0,10.73233 -6.9291,13.49644 -28,11.16954 -6.5278,-0.72088 -9.4496,-0.42591 -22.541,2.27562 -8.2725,1.70713 -17.2725,3.78078 -20,4.60811 -5.6523,1.71456 -8.8414,1.95369 -8.0049,0.60025 z"
       id="path1" />
  </g>
</svg>
