<?xml version="1.0" encoding="UTF-8" standalone="no"?>
<!-- Created with Inkscape (http://www.inkscape.org/) -->

<svg
   version="1.1"
   id="svg1"
   width="935"
   height="375"
   viewBox="0 0 935 375"
   sodipodi:docname="logo.svg"
   inkscape:version="1.4.3 (0d15f75, 2025-12-25)"
   xmlns:inkscape="http://www.inkscape.org/namespaces/inkscape"
   xmlns:sodipodi="http://sodipodi.sourceforge.net/DTD/sodipodi-0.dtd"
   xmlns="http://www.w3.org/2000/svg"
   xmlns:svg="http://www.w3.org/2000/svg">
  <defs
     id="defs1" />
  <sodipodi:namedview
     id="namedview1"
     pagecolor="#ffffff"
     bordercolor="#000000"
     borderopacity="0.25"
     inkscape:showpageshadow="2"
     inkscape:pageopacity="0.0"
     inkscape:pagecheckerboard="0"
     inkscape:deskcolor="#d1d1d1"
     inkscape:zoom="1.828877"
     inkscape:cx="467.5"
     inkscape:cy="187.27339"
     inkscape:window-width="2880"
     inkscape:window-height="1514"
     inkscape:window-x="2869"
     inkscape:window-y="-8"
     inkscape:window-maximized="1"
     inkscape:current-layer="g1" />
  <g
     inkscape:groupmode="layer"
     inkscape:label="Image"
     id="g1">
    <path
       style="fill:#F7F3EA"
       d="m 524.27456,353.51653 c 7.88442,-6.02021 11.93129,-17.53592 9.42154,-26.80982 -0.89067,-3.29118 -4.20601,-4.82466 -7.63557,-3.53178 -1.3417,0.5058 -4.36915,2.69836 -6.72765,4.87235 C 516.97437,330.22128 514.44963,332 513.72234,332 511.69346,332 510,329.85309 510,327.28095 c 0,-1.91578 0.39715,-2.21938 2.28382,-1.74585 1.39028,0.34894 4.42247,-0.42229 7.75,-1.97118 3.0064,-1.39941 6.72603,-2.54878 8.26584,-2.55415 4.2948,-0.015 8.35953,2.57383 9.59192,6.10907 3.61901,10.3815 -1.93472,22.86085 -12.35334,27.75818 -6.27801,2.95101 -6.54036,2.66856 -1.26368,-1.36049 z M 604.5,354.51477 c -7.53821,-2.71307 -9.81068,-9.00366 -4.90955,-13.59046 2.41576,-2.26082 3.29245,-2.41762 13,-2.32517 5.72525,0.0545 10.3946,-0.17047 10.37633,-0.5 -0.10031,-1.80904 -5.89152,-8.54157 -7.07267,-8.22226 -0.76676,0.20728 -4.65205,0.60367 -8.63397,0.88086 C 600.09681,331.25639 597,330.3267 597,327.67756 c 0,-0.70205 0.41818,-0.65938 1.2,0.12244 1.50261,1.50261 7.54985,1.54359 13.32152,0.0903 l 4.40716,-1.10973 -1.93867,-3.80012 -1.93868,-3.80012 -4.27567,1.26086 c -3.48377,1.02733 -4.86341,1.01589 -7.44911,-0.0618 -5.08503,-2.11934 -4.56042,-2.90344 1.70195,-2.54378 3.21377,0.18457 6.53599,-0.0521 7.38271,-0.52596 1.35628,-0.75901 1.30365,-1.24937 -0.44218,-4.12015 -1.08992,-1.79223 -2.99133,-3.64148 -4.22535,-4.10944 l -2.24368,-0.85083 2.62351,-1.21748 c 3.61913,-1.67953 6.87109,0.10101 6.8918,3.77345 0.0283,5.01043 1.33077,5.78209 5.45617,3.23245 2.8428,-1.75695 3.94139,-2.00084 4.85172,-1.07711 1.35035,1.37023 -1.20014,3.73879 -5.0732,4.71132 -2.65256,0.66606 -2.76146,1.45842 -0.73819,5.371 1.36652,2.64255 1.75094,2.81457 4,1.78982 2.73281,-1.24514 3.16352,-2.35374 1.23819,-3.18693 -0.6875,-0.29752 0.74003,-0.44752 3.17228,-0.33333 6.13517,0.28801 6.30638,2.28258 0.41668,4.85416 -2.66143,1.16203 -5.00602,2.25899 -5.2102,2.43769 -0.20418,0.17869 1.48332,2.65412 3.75,5.50095 3.73253,4.68786 5.09599,8.60672 3.53692,10.16579 -0.32138,0.32138 -3.35888,-0.72827 -6.75,-2.33254 -9.44975,-4.47051 -18.7748,-3.65412 -20.77438,1.81875 -0.61825,1.69218 -0.23751,2.91028 1.56285,5 2.26487,2.62889 2.80836,2.7628 11.21305,2.7628 8.16613,0 8.8328,0.15095 8.8328,2 0,1.77157 -0.7424,2.02595 -6.5,2.2272 -3.723,0.13013 -8.20892,-0.38786 -10.5,-1.21243 z m -356.9236,-1.31656 c 7.73934,-2.31873 13.07148,-5.6166 14.94784,-9.24509 2.00472,-3.8767 1.85591,-6.20012 -0.59682,-9.31826 -4.18943,-5.326 -14.23786,-2.63333 -21.66639,5.80593 -3.91987,4.45322 -4.01056,4.49346 -5.76292,2.55713 -1.57795,-1.74363 -1.65063,-2.6133 -0.63924,-7.64939 0.62762,-3.12515 1.14113,-8.0123 1.14113,-10.86032 0,-5.87333 1.2655,-7.51784 7.2685,-9.44544 l 3.7685,-1.21009 -2.5596,-3.04191 c -1.40778,-1.67305 -2.39791,-3.2036 -2.20028,-3.40122 0.19762,-0.19762 2.11126,0.53389 4.25254,1.62557 2.14127,1.09168 4.45724,1.98488 5.1466,1.98488 1.56181,0 3.62966,3.69599 2.80993,5.02234 -0.35401,0.5728 -2.80459,0.72265 -5.88921,0.36011 -7.67087,-0.90156 -9.62637,0.43165 -9.38294,6.39701 0.10595,2.5963 -0.18573,7.11236 -0.64818,10.0357 l -0.84081,5.31516 4.85296,-3.07765 C 254.81565,326.6576 268,329.42403 268,340.59671 c 0,7.34405 -7.85706,12.78564 -20,13.85147 l -6.5,0.57053 z m 436.64611,0.24509 c -3.51854,-2.46448 -2.92878,-6.25025 1.24537,-7.99433 C 687.37522,344.65204 690.44167,344 692.28223,344 h 3.34647 l -0.44931,-11.73844 c -0.35444,-9.25974 -0.79035,-11.99813 -2.06435,-12.9682 -2.5614,-1.95035 0.89008,-1.6785 3.70286,0.29165 2.2205,1.5553 2.26159,2.31887 0.39198,7.28461 -0.50265,1.33505 1.30899,1.32936 9.29012,-0.0292 1.26242,-0.21489 2,0.21275 2,1.15956 0,1.12465 -1.43885,1.57505 -5.75,1.7999 -5.56494,0.29026 -5.75,0.39036 -5.75,3.11043 0,1.54579 0.27471,4.81477 0.61047,7.2644 0.57811,4.21779 0.83771,4.52097 4.8974,5.71965 4.88831,1.44335 9.13215,4.8656 7.74895,6.2488 -0.54656,0.54656 -2.76719,-0.12814 -5.56087,-1.68955 C 700.05915,347.86207 698,347.87704 698,350.50231 698,352.68799 693.88764,355 690,355 c -1.95524,0 -4.55512,-0.70052 -5.77749,-1.5567 z m 10.22046,-3.38029 C 696.90434,347.34323 695.6049,346 690.51241,346 c -5.09005,0 -8.32329,2.31802 -6.42448,4.60595 1.74455,2.10205 8.27105,1.75985 10.35504,-0.54294 z m -375.75547,3.29116 c -1.29151,-1.29151 -0.68994,-5.54192 1.16052,-8.1998 C 323.76221,339.53231 337,314.22127 337,312.35929 c 0,-1.07761 -0.54,-2.49929 -1.2,-3.15929 -2.27355,-2.27355 1.93378,-1.33335 4.69865,1.05 l 2.61018,2.25 -7.0363,10.5 c -3.86996,5.775 -7.04445,10.84906 -7.05441,11.27568 -0.01,0.42662 1.30953,0.0891 2.93222,-0.75 C 338.95319,329.90437 345,332.8742 345,339.9349 c 0,6.67173 1.42532,9.0651 5.39852,9.0651 4.36163,0 8.69229,-3.5339 12.73056,-10.38837 3.15167,-5.34958 2.97443,-2.98233 -0.29113,3.88837 -3.51369,7.39275 -7.32209,10.5 -12.86933,10.5 -5.71758,0 -7.24015,-1.79553 -8.03506,-9.47557 -0.90167,-8.71144 -3.20593,-11.48268 -7.92309,-9.52877 -3.96188,1.64107 -7.18611,5.88494 -10.20467,13.43185 -2.29695,5.74274 -3.6896,7.35535 -5.1183,5.92666 z M 422.15812,351 c -2.32901,-3.15016 -4.93673,-3.82139 -6.96526,-1.79286 -0.94286,0.94286 -1.56392,0.85037 -2.83675,-0.42246 -1.68708,-1.68708 -1.1539,-5.39578 0.61827,-4.30052 0.54367,0.33601 3.71626,-1.31274 7.05018,-3.66388 l 6.06169,-4.27482 -0.29313,-5.50698 -0.29312,-5.50698 -4.30096,0.3144 C 417.3352,326.12834 414,324.85674 414,323.10113 c 0,-0.35969 1.75015,-0.48708 3.88922,-0.28308 6.01838,0.57394 8.11078,-1.04663 8.11078,-6.28181 0,-2.5719 -0.6219,-5.01528 -1.5,-5.89338 C 422.43078,308.57364 422.61419,308 425.34501,308 c 1.28976,0 3.07053,0.80169 3.95727,1.78152 1.4236,1.57306 1.45081,2.2459 0.23255,5.75 -1.67758,4.82526 -0.58563,6.38701 2.87864,4.11713 3.31392,-2.17136 5.82702,-2.13593 5.40101,0.0761 -0.19051,0.98924 -2.24747,2.43021 -4.82332,3.37891 -4.46529,1.64458 -4.49292,1.68419 -4.79695,6.87714 -0.2337,3.99147 0.002,5.09516 1,4.68077 15.43608,-6.41005 27.26034,-3.68521 27.26034,6.28202 0,9.84478 -14.56646,14.63929 -19.87264,6.54103 -2.27061,-3.46539 -1.95891,-3.92637 1.05295,-1.55724 3.61955,2.84714 9.3851,2.76243 12.07589,-0.17742 4.53898,-4.95911 3.6791,-9.85351 -2.15973,-12.29313 -3.92597,-1.64037 -8.41798,-1.05878 -14.55102,1.88395 L 428.5,337.5 v 7 c 0,10.07031 -2.10621,12.22904 -6.34188,6.5 z m 3.23489,-3.58179 c 1.0642,-2.77325 0.65604,-6.41821 -0.7187,-6.41821 -0.72912,0 -2.38565,1.12828 -3.68116,2.50729 -2.3079,2.45665 -2.31647,2.5368 -0.42431,3.9682 2.52722,1.91182 4.07561,1.89344 4.82417,-0.0573 z m 24.99423,-23.33662 c 1.16202,-0.78012 2.2975,-1.56486 2.5233,-1.74387 C 453.99929,321.47459 449.38101,318 447.14501,318 c -1.9406,0 -2.26764,-0.27737 -1.37711,-1.1679 2.69534,-2.69534 13.2321,3.00569 13.2321,7.15936 0,1.29167 -1.07187,1.60376 -5.36276,1.56144 -4.96341,-0.049 -5.20543,-0.15852 -3.25,-1.47131 z m 72.00483,-9.43651 2.89208,-2.44678 -2.96491,-1.53321 c -1.6307,-0.84327 -3.60713,-2.32214 -4.39207,-3.28638 -1.28989,-1.58454 -1.23479,-1.6732 0.57283,-0.92181 1.1,0.45725 4.475,1.329 7.5,1.93723 6.32373,1.2715 8,2.14418 8,4.16489 0,1.01742 -1.19034,1.44098 -4.04966,1.44098 -2.22731,0 -5.48981,0.69567 -7.25,1.54593 L 519.5,317.09186 Z M 265.89213,261.64566 c -7.12962,-2.93285 -11.83524,-5.78281 -19.56276,-11.84819 C 224.93773,233.00704 211.28967,207.4221 204.82902,172 c -1.68678,-9.24823 -2.19127,-16.93363 -2.57643,-39.25 l -0.47895,-27.75 -6.34513,0 c -10.49075,0 -95.631022,6.8894 -106.37812,8.60793 -4.811883,0.76945 -5.013737,1.42414 -5.054064,16.39207 -0.119815,44.47053 -11.805175,79.76632 -35.876376,108.3651 -6.30777,7.49421 -20.651176,19.32567 -27.977729,23.07802 -2.927452,1.49931 -2.394593,0.61799 4.157832,-6.87683 C 48.168834,227.26461 61.801706,194.9289 66.066828,155.5 c 1.480538,-13.68682 0.597254,-33.20329 -1.991171,-43.99566 -1.054717,-4.39762 -1.743246,-8.17008 -1.530065,-8.38327 0.213182,-0.21318 5.465134,0.73258 11.671006,2.10168 11.005762,2.42802 11.603281,2.45651 24.283402,1.15777 24.15625,-2.47417 70.91235,-6.32294 85,-6.996851 l 14,-0.669718 4.22766,-3.856975 C 204.05287,92.735639 206.69908,91 207.60813,91 c 2.44478,0 20.40984,10.16505 21.47173,12.14921 1.23314,2.30416 0.38759,4.12907 -3.11197,6.71641 -1.61417,1.19341 -3.58029,3.41794 -4.36913,4.9434 -3.62107,7.00237 -4.71842,34.18406 -2.08533,51.65405 2.05881,13.65976 4.89447,23.39019 9.95691,34.16664 5.22979,11.1327 10.14396,17.9199 18.90223,26.1068 6.48879,6.06548 10.37512,8.15549 12.60375,6.77813 0.59949,-0.37051 4.22807,-6.93787 8.06351,-14.59415 C 272.87527,211.26422 276.19302,205 276.41261,205 c 0.2196,0 0.15842,7.9875 -0.13593,17.75 -0.52073,17.27001 -0.4641,17.95484 2.09406,25.32518 2.85659,8.23015 3.30493,12.84915 1.42926,14.72482 -1.86638,1.86638 -7.75224,1.37786 -13.90787,-1.15434 z m 190.31071,0.0987 c -0.57313,-0.69058 -1.37231,-2.57146 -1.77597,-4.17975 -0.73446,-2.92633 -8.72123,-11.73628 -13.42687,-14.81074 -2.38831,-1.56042 -2.02359,-1.62492 8.16336,-1.44366 9.97518,0.1775 10.82661,0.0367 13.19304,-2.18107 1.52997,-1.43387 2.94739,-4.31849 3.58664,-7.29922 1.13206,-5.27859 1.25685,-53.88393 0.18442,-71.82997 L 465.5,149.5 l -9,0.30602 c -4.95,0.16832 -15.04745,0.92565 -22.43877,1.68297 -14.76804,1.51314 -14.71368,1.5276 -16.88166,-4.48899 l -0.90083,-2.5 22.31197,-0.0778 22.31197,-0.0778 4.52632,-4.17222 c 5.52237,-5.09034 7.96394,-5.25731 15.49014,-1.05927 6.51942,3.63647 10.08086,6.6791 10.08086,8.61236 0,0.75716 -1.6875,2.92325 -3.75,4.81351 l -3.75,3.43684 -0.0916,39.26218 c -0.0504,21.59419 -0.42547,41.04124 -0.83348,43.21566 -0.40802,2.17441 -1.63625,5.70665 -2.72941,7.84941 -5.50515,10.79099 -19.77004,20.10769 -23.64263,15.44151 z M 538.9025,258.25 c -2.39095,-5.60444 -6.58812,-10.19746 -13.19052,-14.43456 -2.63341,-1.69 -4.63769,-3.22307 -4.45394,-3.40681 0.18375,-0.18375 4.63391,0.13315 9.88925,0.70422 11.79654,1.28187 16.07545,-0.008 18.3887,-5.54474 2.02425,-4.84471 2.19486,-85.71667 0.18435,-87.38524 -1.35559,-1.12505 -19.58968,-0.21035 -37.55925,1.88413 -5.1364,0.59868 -9.46859,0.94102 -9.62708,0.76076 -1.07326,-1.2207 -4.36085,-8.66759 -3.99015,-9.03829 0.252,-0.252 3.27022,-0.0481 6.70716,0.45305 3.43694,0.50118 14.11355,0.61486 23.72579,0.25264 l 17.47682,-0.65858 4.25084,-3.91829 c 2.33796,-2.15506 4.8234,-3.91793 5.52319,-3.9175 1.73925,0.001 13.32271,5.54286 16.87952,8.07553 1.59105,1.13293 2.89282,2.7664 2.89282,3.62994 0,0.86354 -1.8,3.52285 -4,5.90957 l -4,4.33948 -0.0536,11.77235 c -0.33582,73.7548 -0.28906,72.4302 -2.74575,77.77234 -2.88941,6.2831 -8.32117,11.96691 -14.41741,15.0864 -7.32223,3.74685 -9.46533,3.3254 -11.88074,-2.3364 z m 226.23922,1.20304 c -2.31552,-2.94371 -2.7877,-5.00293 -3.65803,-15.95304 -1.0953,-13.78066 -4.3778,-34.61827 -6.98197,-44.32216 C 753.12578,194.05065 752,189.60563 752,189.30003 c 0,-0.92514 7.55286,0.58217 15.39357,3.07206 7.34281,2.33178 7.49519,2.33816 20.75178,0.86995 7.34506,-0.8135 13.49461,-1.60321 13.66567,-1.75491 1.03204,-0.91528 2.15164,-15.03762 2.16887,-27.35774 L 804,149.75878 l -13.75,0.68428 c -7.5625,0.37636 -21.37939,1.33063 -30.7042,2.12061 C 750.22099,153.35365 741.86684,154 740.98101,154 739.58177,154 736,148.35642 736,146.15172 c 0,-0.42923 5.20824,-0.58107 11.57386,-0.33741 11.43203,0.43759 55.44423,-1.49638 56.42155,-2.47925 1.06364,-1.06968 -0.042,-24.96808 -1.40026,-30.26742 -0.78488,-3.0622 -1.57737,-6.24264 -1.7611,-7.06764 -0.40135,-1.80222 4.85128,-1.62439 15.41878,0.522 12.48853,2.53657 15.18985,5.31895 10.2102,10.51658 -2.56742,2.67981 -2.751,3.50493 -3.23871,14.55664 l -0.51701,11.71579 11.39634,-0.63995 C 840.37164,142.31908 853.15,141.73185 862.5,141.3661 l 17,-0.66501 5.44558,-4.95564 c 8.4894,-7.72561 9.50314,-8.22719 13.94069,-6.89767 6.77809,2.03076 21.45018,14.34324 19.35446,16.24181 -0.4074,0.36907 -17.16573,1.18498 -37.24073,1.81313 -20.075,0.62815 -41.30094,1.42274 -47.16877,1.76576 l -10.66876,0.62366 -0.54805,5.60393 C 822.313,157.97823 821.93894,167.25 821.78319,175.5 l -0.28319,15 16,-0.35874 16,-0.35873 5.09237,-3.89127 C 861.39318,183.75107 864.55258,182 865.61328,182 c 2.52556,0 16.21379,8.06468 19.2761,11.35687 2.27587,2.44672 2.3115,2.68761 0.75,5.07076 -0.90166,1.3761 -2.53472,2.98117 -3.62903,3.56683 -3.38052,1.8092 -4.81112,6.13207 -7.10747,21.47668 l -2.21445,14.79734 2.37462,4.34693 c 1.72248,3.15315 2.07346,4.64808 1.27804,5.4435 -1.4991,1.4991 -7.88874,2.88841 -13.41678,2.91723 -3.67613,0.0192 -5.05229,-0.49277 -7,-2.60402 l -2.42431,-2.62788 -19,0.62751 c -10.45,0.34514 -27.1,1.29664 -37,2.11445 -9.9,0.81781 -18.3375,1.49298 -18.75,1.50037 -0.4125,0.007 -0.75,0.93578 -0.75,2.06309 0,1.12731 -0.67966,3.36397 -1.51035,4.97036 -2.8059,5.42601 -8.10068,6.56122 -11.34793,2.43302 z M 800.5,242.01323 c 7.7,-0.53611 22.325,-1.26941 32.5,-1.62955 10.175,-0.36014 19.00309,-1.04959 19.61798,-1.53212 1.52881,-1.19971 5.6969,-38.86743 4.6133,-41.69123 -0.47494,-1.23768 -3.35284,-1.35391 -19.14512,-0.77319 -18.5504,0.68213 -52.23575,3.06187 -59.33616,4.19186 l -3.75,0.5968 0.0297,5.6621 c 0.0163,3.11415 0.67797,12.1871 1.47029,20.1621 0.79232,7.975 1.45394,15.09007 1.47029,15.81127 0.0218,0.96271 1.15945,1.16048 4.27971,0.74399 2.3375,-0.31201 10.55,-1.00593 18.25,-1.54203 z m -451.95009,17.88072 c 0.46523,-0.76667 2.95045,-4.09395 5.5227,-7.39395 16.02711,-20.56157 28.96131,-47.93032 35.54409,-75.21125 7.52919,-31.20316 9.4406,-73.91554 4.68443,-104.678201 l -0.60134,-3.889451 3.9001,0.715212 c 2.14506,0.393368 7.21691,1.852015 11.27077,3.241438 l 7.37066,2.526225 59.12934,-1.749922 59.12934,-1.749922 4.22766,-3.852064 C 541.05287,65.733429 543.68853,64 544.58469,64 c 2.42429,0 13.8948,5.691142 17.3783,8.622313 1.67036,1.405511 3.03701,3.252648 3.03701,4.10475 0,0.852102 -1.76109,3.459832 -3.91353,5.794956 -4.49811,4.879872 -5.37877,9.013024 -5.50968,25.858261 l -0.0768,9.88028 -3.4844,1.86972 c -6.70038,3.59541 -13.17283,1.74665 -15.3352,-4.38028 -0.45678,-1.29426 -1.72141,-1.75 -4.85602,-1.75 -9.98183,0 -88.45154,3.10073 -100.31962,3.96412 -7.14738,0.51997 -13.37708,0.56356 -13.84378,0.0969 -0.4667,-0.4667 -0.68784,-1.68384 -0.49144,-2.70476 0.47667,-2.47772 3.64563,-2.81252 40.33046,-4.26084 16.5,-0.65142 40.77013,-1.60901 53.93361,-2.12797 16.26159,-0.6411 24.16517,-1.31822 24.65596,-2.11234 1.11321,-1.80122 2.27753,-27.898298 1.28507,-28.803749 -0.96578,-0.881118 -55.80077,0.243383 -94.87464,1.945595 -19.5297,0.850791 -25.23848,1.401814 -26.08988,2.518249 -0.65978,0.865157 -1.3398,10.024496 -1.72315,23.209585 -1.31764,45.31932 -7.56135,74.81107 -21.86443,103.27525 -8.26601,16.44997 -14.03401,24.33161 -27.80941,38 -9.52433,9.45034 -18.76555,16.68804 -16.46322,12.89395 z M 669,260.51142 c 0,-0.37116 1.52325,-2.55056 3.385,-4.84312 15.7301,-19.37005 31.52253,-51.67426 38.67588,-79.11345 9.37767,-35.97138 12.2666,-91.722847 6.59667,-127.30485 -1.57283,-9.870403 -2.27452,-9.567933 11.88221,-5.121924 L 739.5,47.256153 776,45.619146 c 20.075,-0.900353 47.075,-1.919042 60,-2.263753 l 23.5,-0.626746 4.1683,-3.364324 C 866.00849,37.475498 868.97757,36 870.43817,36 876.51317,36 892,44.267503 892,47.510585 c 0,0.774842 -1.77908,3.054875 -3.95352,5.066739 -3.06506,2.835902 -4.18818,4.811314 -4.99771,8.790306 -1.80709,8.882222 -2.95057,26.492865 -1.9437,29.934863 0.81679,2.792185 0.61568,3.47682 -1.5865,5.400958 -2.61818,2.287602 -8.33964,4.281319 -12.31402,4.290969 C 864.52256,101.00094 860,96.853256 860,94.387064 c 0,-1.581926 -2.093,-1.654766 -29.25,-1.01796 -26.50795,0.621587 -40.31531,1.221874 -74.5,3.238957 L 745,97.271872 v -3.135936 c 0,-2.319757 0.45547,-3.13606 1.75,-3.136413 0.9625,-2.62e-4 15.7,-0.646214 32.75,-1.435448 17.05,-0.789234 42.11811,-1.743571 55.70691,-2.120748 l 24.7069,-0.685778 0.53933,-4.128775 C 861.75276,72.679742 863,58.679036 863,54.039414 V 49 l -12.25,0.01708 c -12.42441,0.01732 -36.39521,0.913764 -83.01549,3.104549 -18.92336,0.889248 -26.05674,1.561705 -26.86224,2.532277 -0.69945,0.842787 -1.20678,9.204917 -1.40049,23.083799 -0.58878,42.184306 -5.44907,78.273756 -14.01544,104.069786 -9.45175,28.46217 -27.97273,55.57384 -51.25961,75.03563 -2.8582,2.38871 -5.19673,4.03945 -5.19673,3.6683 z M 83.835605,249.94784 c -3.392885,-3.56666 -9.800503,-13.38587 -9.826221,-15.05797 -0.0052,-0.33558 6.178116,-0.86925 13.740616,-1.18595 12.50398,-0.52363 41.61342,-4.73812 43.12614,-6.24384 0.34312,-0.34153 0.77037,-6.88477 0.94944,-14.54053 L 132.15117,199 l -5.82559,0.011 c -10.31909,0.0195 -13.13624,0.85046 -13.84651,4.08427 -0.70292,3.20039 -5.70249,7.90472 -8.40081,7.90472 -3.80187,0 -5.33558,-3.52274 -6.200341,-14.24142 -1.06023,-13.1415 -2.5963,-21.52607 -5.528562,-30.1774 -1.289778,-3.80535 -2.17096,-7.09291 -1.958183,-7.30569 0.212776,-0.21277 4.542185,0.58869 9.620906,1.78103 7.96177,1.8692 10.80157,2.06996 20.61098,1.45704 L 132,161.8027 v -9.84233 c 0,-5.41329 -0.3375,-10.04895 -0.75,-10.30147 -0.4125,-0.25252 -8.85,0.11337 -18.75,0.8131 -17.872679,1.26323 -18.013212,1.25722 -19.867779,-0.84988 L 90.764443,139.5 l 9.867777,-0.62391 c 19.68238,-1.24445 49.38609,-10.74491 61.13305,-19.55285 3.90332,-2.92673 5.30752,-2.62042 12.3928,2.70335 10.20938,7.67119 11.05972,12.97341 2.08058,12.97341 -4.34651,0 -28.28853,3.71655 -29.08723,4.51524 -0.21423,0.21424 0.32213,1.10117 1.19192,1.97096 1.20567,1.20566 1.35276,2.18291 0.61905,4.11272 C 148.43308,146.99112 148,150.8009 148,154.0651 V 160 h 9.90539 c 9.85582,0 9.92634,-0.0175 14.09461,-3.5 2.30407,-1.925 4.87893,-3.5 5.7219,-3.5 2.58811,0 14.31171,6.2099 15.83831,8.38942 1.97824,2.82434 1.90574,3.08906 -2.04282,7.45966 -2.95438,3.27014 -3.64244,4.97696 -4.5363,11.25288 -0.57952,4.06892 -0.77359,9.65572 -0.43126,12.41511 0.76923,6.20055 -1.19976,8.46372 -8.03375,9.23401 C 173.78513,202.28432 170,200.33787 170,197.3718 c 0,-1.03892 -2.06575,-1.20016 -9.75,-0.76099 -5.3625,0.30647 -10.3125,0.73029 -11,0.94182 -0.92024,0.28314 -1.25,3.989 -1.25,14.04765 v 13.66306 l 3.75,-0.54796 c 2.0625,-0.30138 7.9125,-1.13511 13,-1.85275 5.0875,-0.71763 9.25,-1.63193 9.25,-2.03179 0,-0.39985 -2.25,-3.43066 -5,-6.73512 C 164.56162,208.76246 163.01831,206 164.47717,206 c 1.64634,0 14.96053,5.63406 19.99846,8.46259 C 196.88404,221.42924 203,228.87338 203,237.00982 c 0,13.49539 -14.02189,16.71576 -18.55496,4.26148 -3.89776,-10.70884 -6.74771,-16.27111 -8.3316,-16.26086 -3.24958,0.021 -75.49496,24.0231 -79.665757,26.46735 -5.939489,3.48077 -8.094136,3.2194 -12.612078,-1.52995 z M 125.25,193.34829 132,192.71079 V 179.8554 167 l -3.75,0.0514 c -5.77282,0.079 -17.10386,1.46917 -17.82101,2.18633 -0.58237,0.58236 1.22408,20.54745 2.1274,23.51232 0.42789,1.40444 2.91607,1.52171 12.69361,0.59829 z m 43.95856,-3.23019 c 0.93987,-0.84259 3.00465,-22.9641 2.25643,-24.17474 -0.66403,-1.07443 -10.41291,-1.23252 -18.21499,-0.29538 l -5.25,0.6306 v 12.90649 12.9065 l 10.25,-0.66912 c 5.6375,-0.36801 10.56885,-0.95497 10.95856,-1.30435 z m 246.27198,39.42995 C 411.77113,225.61493 408,218.39662 408,215.22959 c 0,-1.70623 0.75866,-2.25139 3.75,-2.69467 6.75223,-1.00061 16.48463,-3.54574 33.05821,-8.64509 8.96951,-2.75973 16.78345,-4.85928 17.36431,-4.66566 1.08034,0.36012 -10.37682,9.79469 -24.67252,20.31697 -4.4,3.2386 -9.90245,7.59173 -12.22766,9.67361 -2.32521,2.08189 -4.74707,3.78525 -5.38192,3.78525 -0.63485,0 -2.61929,-1.55338 -4.40988,-3.45195 z m 87.32761,-3.48432 C 500.18102,223.99723 494,213.22481 494,210.71268 c 0,-1.08021 1.91282,-1.83467 6.75,-2.66234 7.25485,-1.24136 36.57028,-9.35105 42.12212,-11.65248 3.95085,-1.63776 4.12788,-1.6617 4.12788,-0.55832 0,0.87178 -4.86102,4.79068 -23.5,18.94545 -6.05,4.59447 -12.03071,9.44741 -13.29047,10.7843 -2.76761,2.93707 -4.17644,3.03118 -7.40138,0.49444 z m -66.44732,-34.52355 c -1.2158,-0.85158 -3.04324,-4.44248 -4.38597,-8.61837 -1.37894,-4.28851 -4.0404,-9.47142 -6.63832,-12.92742 C 421.16055,164.43909 420.08719,162 421.8185,162 c 2.02107,0 12.10698,3.4385 16.27152,5.5473 2.52451,1.27834 6.01201,3.94381 7.75,5.92327 2.69722,3.07197 3.15532,4.36275 3.12818,8.81423 -0.0336,5.50365 -1.07809,7.64814 -4.65246,9.55186 -2.92738,1.55913 -5.43932,1.46551 -7.95491,-0.29648 z m 85.31377,-1.66247 c -1.00397,-0.58382 -3.74569,-5.19886 -6.0927,-10.25565 -2.34702,-5.05679 -5.68809,-10.81235 -7.4246,-12.79013 -4.5002,-5.12544 -4.1789,-6.208 1.5927,-5.36632 7.07169,1.03128 15.82013,5.31617 19.7618,9.67913 2.98749,3.3068 3.4882,4.56659 3.4882,8.77635 0,6.34688 -0.63078,7.83662 -4.07152,9.6159 -3.32035,1.71701 -4.77,1.7851 -7.25388,0.34072 z M 69.454545,86.545455 C 66.690393,83.781302 66.220598,78.059096 68.096158,70 c 1.297174,-5.573825 1.347746,-19.886887 0.09282,-26.268624 -0.515746,-2.622743 -0.656753,-4.93765 -0.313347,-5.144238 0.979523,-0.589265 14.657003,3.112533 19.63301,5.313657 5.188394,2.295074 5.676608,4.25264 2.014027,8.07555 -2.101676,2.193677 -2.578963,3.907911 -3.147527,11.304719 L 85.704945,72 l 3.397528,-0.08545 c 1.86864,-0.047 12.847527,-0.834497 24.397527,-1.75 L 134.5,68.5 134.78353,53 c 0.27299,-14.924326 0.0668,-16.888387 -3.55584,-33.864252 -0.50083,-2.346942 -0.45775,-2.35902 5.88389,-1.649679 6.2225,0.696014 17.1822,2.921963 20.32556,4.128184 2.24789,0.862595 1.9235,4.372956 -0.65802,7.120861 -2.05064,2.182805 -2.27917,3.71586 -2.9814,19.999714 -0.41829,9.699634 -0.60126,17.79497 -0.40659,17.989635 0.19466,0.194665 12.31267,0.0412 26.92891,-0.341029 l 26.57497,-0.694966 0.68029,-5.444815 c 0.76078,-6.089153 -0.0864,-16.798306 -1.77998,-22.5001 -0.61367,-2.066046 -0.82115,-4.05106 -0.46107,-4.411141 0.9441,-0.944093 14.25418,1.573527 20.41575,3.861665 5.99341,2.225691 6.79972,4.528993 3,8.569745 -2.04655,2.176369 -2.29521,3.633565 -2.75,16.115439 -0.56269,15.443322 -1.57551,18.209777 -7.5862,20.721203 C 212.36034,85.129758 207,81.953154 207,75.836511 207,74.341349 206.63375,72.891676 206.1861,72.615017 203.68149,71.067083 133.76944,75.049612 101,78.606926 86.645908,80.165147 86.469812,80.21444 83.5,83.505593 78.043811,89.552155 73.45451,90.545419 69.454545,86.545455 Z M 380.51685,50.033244 C 379.13258,47.301528 378,44.927927 378,44.758575 c 0,-0.169352 4.8375,0.104938 10.75,0.609534 6.90701,0.589471 24.51327,0.503843 49.25,-0.239526 21.175,-0.636335 54.3709,-1.631852 73.76867,-2.21226 l 35.26866,-1.055286 6.27435,-6.430519 c 7.66498,-7.855762 10.11875,-8.24301 18.20815,-2.873571 C 577.69877,36.65829 585,43.659403 585,45.483007 c 0,0.949709 -6.5084,1.410916 -27.25,1.931024 -86.82274,2.177131 -153.51013,4.834316 -165.7376,6.603877 -3.58182,0.518361 -7.06732,0.951389 -7.74555,0.962283 -0.67824,0.0109 -2.36574,-2.215231 -3.75,-4.946947 z"
       id="path1" />
  </g>
</svg>
