<?xml version="1.0" encoding="UTF-8" standalone="no"?>
<!-- Created with Inkscape (http://www.inkscape.org/) -->

<svg
   version="1.1"
   id="svg1"
   width="206"
   height="100"
   viewBox="0 0 206 100"
   sodipodi:docname="favicon.svg"
   inkscape:version="1.4.3 (0d15f75, 2025-12-25)"
   xmlns:inkscape="http://www.inkscape.org/namespaces/inkscape"
   xmlns:sodipodi="http://sodipodi.sourceforge.net/DTD/sodipodi-0.dtd"
   xmlns="http://www.w3.org/2000/svg"
   xmlns:svg="http://www.w3.org/2000/svg">
  <defs
     id="defs1" />
  <sodipodi:namedview
     id="namedview1"
     pagecolor="#ffffff"
     bordercolor="#000000"
     borderopacity="0.25"
     inkscape:showpageshadow="2"
     inkscape:pageopacity="0.0"
     inkscape:pagecheckerboard="0"
     inkscape:deskcolor="#d1d1d1"
     inkscape:zoom="8.13"
     inkscape:cx="102.95203"
     inkscape:cy="43.480935"
     inkscape:window-width="2880"
     inkscape:window-height="1514"
     inkscape:window-x="2869"
     inkscape:window-y="-8"
     inkscape:window-maximized="1"
     inkscape:current-layer="g1" />
  <g
     inkscape:groupmode="layer"
     inkscape:label="Image"
     id="g1">
    <path
       style="fill:#000000"
       d="m 114.34501,85.171259 c 2.61768,-2.892501 2.16671,-5.337796 -0.84501,-4.581903 -1.5404,0.386616 -2.5,0.20201 -2.5,-0.480948 C 111,79.498784 111.70532,79 112.56739,79 c 1.08972,0 1.38195,-0.584243 0.95891,-1.917124 -0.48776,-1.536793 -0.21727,-1.814824 1.36342,-1.401464 1.18041,0.308685 1.75603,1.078178 1.43409,1.917124 C 116.02803,78.369341 116.28417,79 116.89301,79 c 1.78631,0 1.26955,4.542907 -0.72175,6.345012 -2.47701,2.24166 -3.89046,2.10718 -1.82625,-0.173753 z m 16.75927,0.914353 c -1.99412,-1.262671 -0.58525,-4.063924 2.11434,-4.203927 C 135.0995,81.784141 134.97335,81.629361 132.5,81 129.65623,80.276383 129.63019,80.225277 132,80.018635 L 134.5,79.80064 132,79 c -1.375,-0.440352 -1.9375,-0.845496 -1.25,-0.90032 C 131.4375,78.044856 132,77.325 132,76.5 c 0,-0.825 0.45,-1.5 1,-1.5 0.55,0 1,0.476558 1,1.059017 0,0.582459 0.52647,0.733639 1.16994,0.335955 0.79376,-0.490569 0.95821,-0.171307 0.51145,0.992921 -0.36417,0.949019 -0.24753,1.462002 0.26097,1.147733 0.50569,-0.312537 1.2021,-0.110909 1.54756,0.448062 C 137.83538,79.54266 137.68361,80 137.15264,80 c -0.53097,0 -0.72396,0.923274 -0.42886,2.051719 0.46814,1.790174 0.20125,1.967569 -2.09362,1.391592 C 132.97485,83.027855 132,83.194007 132,83.891592 132,84.501216 132.9,85 134,85 c 1.1,0 2,0.45 2,1 0,1.231433 -3.00319,1.28395 -4.89572,0.08561 z M 55.76673,84.500202 C 58.799012,82.31027 57.566901,80.398532 54.442584,82.445663 51.229381,84.551035 51,84.45471 51,81 c 0,-1.65 0.45,-3 1,-3 0.55,0 1,-0.660877 1,-1.468615 0,-0.894593 0.586289,-1.243635 1.5,-0.893011 0.825,0.316582 1.5,0.977459 1.5,1.468615 C 56,77.598145 55.325,78 54.5,78 53.675,78 53,78.647219 53,79.438264 c 0,0.947988 0.937421,1.374088 2.75,1.25 2.31687,-0.158612 2.75,0.20549 2.75,2.311736 0,1.915034 -0.584966,2.574554 -2.5,2.818624 l -2.5,0.318625 z M 69.229074,85.25 c 0.217658,-0.4125 1.267658,-2.657923 2.333334,-4.989829 C 73.473516,76.078294 75,74.763812 75,77.3 c 0,0.715 -0.54,1.84 -1.2,2.5 -0.933333,0.933333 -0.822222,1.2 0.5,1.2 0.935,0 1.7,0.675 1.7,1.5 0,1.808192 1.166794,1.933206 2.8,0.3 0.666667,-0.666667 1.2,-0.755556 1.2,-0.2 0,1.389116 -2.14846,3.4 -3.632612,3.4 -0.677937,0 -1.54657,-0.989192 -1.930295,-2.198204 L 73.73941,81.603592 71.959412,83.801796 C 70.28478,85.869879 68.364576,86.888379 69.229074,85.25 Z m 21.775797,-0.225828 c -1.282764,-0.810948 -1.211745,-1.161167 0.5,-2.465684 1.722575,-1.312769 1.790214,-1.657596 0.495129,-2.524172 -1.16098,-0.776843 -1.193302,-1.007151 -0.143011,-1.019003 0.792965,-0.0089 1.117742,-0.638779 0.781385,-1.515313 -0.717041,-1.868579 0.07815,-1.926328 1.868769,-0.135714 1.055932,1.055931 1.096292,1.654243 0.178571,2.647178 -0.938417,1.015329 -0.820728,1.154461 0.564286,0.667099 2.545235,-0.895622 4.75,0.246126 4.75,2.459811 0,2.317159 -2.688103,3.573523 -4.267217,1.994409 C 94.889072,84.289072 95.03382,84 96.3,84 c 0.935,0 1.7,-0.45 1.7,-1 0,-0.55 -0.9,-1 -2,-1 -1.333333,0 -2,0.666667 -2,2 0,2.201816 -0.734848,2.453094 -2.995129,1.024172 z m 57.396819,-0.183235 c -0.4733,-0.765814 -0.21676,-0.983952 0.72992,-0.620674 1.06049,0.406948 1.52406,-0.284346 1.69499,-2.527669 0.30071,-3.946453 0.71087,-4.297981 2.69721,-2.311642 C 154.41429,80.271429 154.66071,81 154.07143,81 153.48214,81 153,81.675 153,82.5 c 0,0.825 0.45,1.5 1,1.5 0.55,0 1,0.354282 1,0.787292 0,1.288085 -5.80621,1.33529 -6.59831,0.05365 z M 13.5,81 c -1.250105,-0.537188 2.686846,-0.841421 10.5,-0.8114 7.795472,0.02995 11.370913,0.335333 9.5,0.8114 -4.126148,1.049926 -17.55669,1.049926 -20,0 z m 158,0 c -1.25272,-0.538312 2.6705,-0.848446 10.5,-0.830035 7.71458,0.01814 11.54292,0.335907 10,0.830035 -3.35841,1.075551 -17.99706,1.075551 -20.5,0 z M 98,78.377555 C 98,77.048765 98.271492,76.980429 99.5,78 c 0.825,0.684689 1.5,1.414789 1.5,1.622445 C 101,79.8301 100.325,80 99.5,80 98.675,80 98,79.2699 98,78.377555 Z M 56.5,65.129298 C 48.959971,60.446371 45.173069,52.831958 44.311349,40.621292 L 43.72077,32.252719 37.110385,32.738647 C 33.474673,33.005908 28.025,33.512552 25,33.864523 l -5.5,0.639947 -0.634093,7.091525 C 18.517156,45.496333 17.330358,50.72541 16.228579,53.216165 13.87042,58.547174 7.4388743,66 5.1965465,66 4.0128702,66 4.2608493,65.322356 6.2028905,63.25 11.966059,57.10011 15.66434,45.309587 14.619269,36.417663 l -0.631143,-5.370038 2.755937,0.545037 C 19.398964,32.117717 39.867093,30.550626 45,29.429317 c 1.375,-0.300375 3.305557,0.04981 4.290127,0.778199 1.686291,1.247518 1.693997,1.517033 0.132846,4.646434 -2.604405,5.220654 -0.294562,17.315499 4.270153,22.359452 2.246934,2.482834 3.782334,2.233255 5.1838,-0.842628 0.658875,-1.446074 1.343124,-2.458574 1.520552,-2.25 0.177428,0.208574 0.60368,3.191726 0.947227,6.629226 0.698635,6.990486 0.153299,7.483435 -4.844705,4.379298 z M 98.123444,63.953097 95.940125,61 h 2.510886 c 2.594189,0 4.116079,-2.923448 3.387549,-6.507233 -0.27687,-1.361955 -1.21285,-0.996896 -5.136655,2.003435 -3.888248,2.973145 -5.073414,3.440362 -6.25,2.463883 -2.73916,-2.273301 -1.442994,-3.665656 5.048095,-5.422712 6.49212,-1.757336 6.49998,-1.763877 6.48469,-5.39842 -0.0228,-5.422444 -1.10225,-6.520651 -5.791029,-5.891754 -2.204825,0.295729 -4.43838,0.108082 -4.963456,-0.416994 -0.606245,-0.606245 -1.202788,0.596874 -1.634461,3.296409 -0.844754,5.282802 -5.800615,14.737422 -9.666249,18.440934 -4.010135,3.841954 -4.385458,2.744188 -0.85767,-2.508562 C 83.695008,54.175232 86.11552,44.98551 86.198981,34 l 0.07218,-9.5 14.499584,0.346642 c 9.96767,0.238297 15.19966,-0.02803 16.73942,-0.852082 3.43309,-1.837331 8.69657,1.523573 5.48984,3.50544 -0.55,0.339919 -1,2.180599 -1,4.090402 0,3.650044 -2.00391,5.394697 -4.26273,3.71124 C 117.05677,34.794482 110.7625,34.56541 103.75,34.792594 91.077385,35.203147 91,35.220204 91,37.602827 91,39.782368 91.41451,40 95.565741,40 c 2.511158,0 5.366589,-0.428598 6.345399,-0.952441 2.32473,-1.244159 6.83565,1.605652 5.17313,3.26817 C 106.46831,42.931692 106,47.229211 106,52.265741 c 0,9.22088 -0.79191,12.017342 -3.86954,13.664437 -1.46367,0.783332 -2.254724,0.393021 -4.007016,-1.977081 z M 116.25,32.094756 c 0.4125,-0.05212 0.75079,-1.332256 0.75175,-2.844756 l 0.002,-2.75 -13.00175,0.305594 L 91,27.111188 90.998794,30.305594 90.997588,33.5 103.24879,32.844756 c 6.73817,-0.360384 12.58871,-0.697884 13.00121,-0.75 z m -0.044,31.96994 -2.17016,-2.935305 2.7321,-0.314695 L 119.5,60.5 l 0.28753,-9.25 0.28752,-9.25 -5.53752,0 C 111.49189,42 109,41.55 109,41 c 0,-0.55 2.22344,-1 4.94098,-1 2.71754,0 5.2191,-0.45 5.55902,-1 0.86962,-1.407072 2.78857,-1.242946 5.05887,0.432679 1.55582,1.148296 1.69301,1.684241 0.69113,2.7 -0.82565,0.837094 -1.25,4.535029 -1.25,10.893007 0,8.768647 -0.20607,9.81928 -2.31445,11.8 C 120.4126,66.021559 119.14723,67 118.87361,67 c -0.27362,0 -1.47407,-1.320887 -2.66766,-2.935304 z m 29.83944,1.720032 c -0.025,-0.393399 1.32331,-2.868399 2.99617,-5.5 5.15593,-8.110877 7.35998,-17.140673 7.41247,-30.368325 l 0.046,-11.583596 7,0.440221 c 3.85,0.242122 11.68757,-0.03341 17.41683,-0.612302 12.48578,-1.261572 14.72552,-0.619437 12.52863,3.591971 -0.78823,1.511017 -1.43591,4.172303 -1.4393,5.91397 -0.007,3.49903 -1.52283,4.570194 -4.38161,3.095881 -1.0493,-0.541135 -7.21648,-0.779309 -14,-0.540675 L 161.5,30.648396 l -0.29964,4.549763 c -0.35169,5.339973 0.0125,5.563102 8.16798,5.00477 l 5.86833,-0.40175 -0.5308,-3.957419 c -0.52776,-3.934762 -0.5127,-3.955663 2.63166,-3.65059 3.02655,0.293643 3.14762,0.474549 2.81687,4.209278 l -0.3456,3.902449 6.24326,-0.65255 c 3.43379,-0.358902 6.86514,-1.168664 7.62521,-1.79947 1.02945,-0.854365 2.0121,-0.859808 3.85234,-0.02134 4.46822,2.035854 2.60628,2.942996 -7.52961,3.668461 -8.30779,0.594621 -10.00231,0.993622 -10.01365,2.357869 -0.008,0.903172 -0.285,2.654631 -0.61664,3.892131 -0.55279,2.062727 -0.26525,2.25 3.45464,2.25 2.23169,0 4.32524,-0.433031 4.65234,-0.96229 0.37169,-0.6014 1.54394,-0.529803 3.12573,0.190909 1.95824,0.892236 2.37364,1.619161 1.83564,3.21229 -0.38244,1.1325 -0.90422,4.171739 -1.1595,6.753864 l -0.46414,4.694774 -8.27499,-0.583975 C 176.0012,62.844163 173.5748,63.065635 170.97858,64.360799 169.17136,65.262359 167.36296,66 166.95991,66 c -0.40305,0 -1.03163,-2.1375 -1.39684,-4.75 -0.36521,-2.6125 -0.90747,-6.164989 -1.20503,-7.894421 l -0.54101,-3.14442 5.34149,0.14442 L 174.5,50.5 l 0.3093,-4.286984 0.30931,-4.286984 -7.55069,0.286984 c -5.08543,0.193285 -7.55351,0.682856 -7.55931,1.499471 -0.0264,3.709769 -4.59405,12.5495 -8.96424,17.348204 -2.72447,2.99162 -4.97401,5.117437 -4.99898,4.724037 z M 179.58179,61 H 186 v -4.629125 -4.629126 l -8.25,0.717246 c -4.5375,0.394485 -8.33361,0.798705 -8.43581,0.898266 -0.10219,0.09956 0.0728,2.109073 0.38887,4.465579 0.42744,3.186809 0.94437,4.142694 2.0176,3.730859 C 172.51426,61.249164 176.05177,61 179.58179,61 Z m -2.08763,-33 h 9.24416 l 0.60002,-3.697489 c 0.33001,-2.033619 0.48686,-3.81064 0.34857,-3.948935 -0.1383,-0.138295 -5.97443,0.01896 -12.96918,0.349465 L 162,21.303952 v 3.973024 c 0,3.916454 0.0445,3.964125 3.125,3.348024 C 166.84375,28.28125 172.40987,28 177.49416,28 Z M 18.509489,63.010486 C 16.162919,60.417555 16.698516,59.516209 20.710326,59.306745 27.299364,58.962719 29,58.177852 29,55.480948 29,53.666667 28.462571,53 27,53 c -1.1,0 -2,0.45 -2,1 0,0.55 -0.666427,1 -1.480948,1 -1.459662,0 -1.861234,-1.085864 -2.961198,-8.007187 l -0.557376,-3.507187 4.499761,0.357881 C 28.526158,44.163701 29,43.978932 29,42.088876 c 0,-1.893121 -0.402368,-2.04817 -3.874405,-1.492969 -2.172068,0.347328 -4.140913,0.188326 -4.480957,-0.361878 -0.347593,-0.562417 1.43696,-1.252501 4.179916,-1.616367 2.632557,-0.349221 6.455157,-1.485694 8.494667,-2.525496 3.592925,-1.831777 3.777718,-1.833818 5.944489,-0.06565 2.407873,1.964917 2.21273,2.154246 -3.51371,3.409012 -1.871727,0.41013 -2.75,1.235234 -2.75,2.583523 0,2.284588 0.889905,2.443863 4.489887,0.803602 3.792417,-1.727941 5.550565,0.427708 4.630448,5.677346 -0.69754,3.979745 -0.722407,3.998642 -4.910713,3.731856 C 33.176006,51.974923 33,52.084104 33,54.843184 c 0,2.538963 0.298257,2.822457 2.522176,2.397328 2.011671,-0.384555 2.290497,-0.761301 1.377555,-1.861328 -1.746755,-2.104712 0.955276,-1.764968 4.850269,0.609856 2.218108,1.352406 3.25,2.746024 3.25,4.389273 0,4.446418 -3.65477,4.026812 -5.306042,-0.60919 -0.561878,-1.577491 -1.46097,-1.436657 -10.145746,1.589226 -8.849222,3.083179 -9.636951,3.201077 -11.038723,1.652137 z M 29,48.5 C 29,46.666667 28.466667,46 27,46 c -1.466667,0 -2,0.666667 -2,2.5 0,1.833333 0.533333,2.5 2,2.5 1.466667,0 2,-0.666667 2,-2.5 z m 8.343705,-0.70633 c 0.721117,-2.757553 0.341119,-3.1458 -2.268344,-2.317588 C 32.425375,46.317154 32.269077,50 34.883369,50 c 1.101073,0 2.123024,-0.916443 2.460336,-2.20633 z M 109.2,57.8 c -2.25095,-2.250953 -1.20287,-3.470077 4.3,-5.001722 3.025,-0.841965 5.5,-1.216332 5.5,-0.831927 C 119,52.624441 111.52973,59 110.75864,59 110.56139,59 109.86,58.46 109.2,57.8 Z M 93.568906,47.83767 c -1.903897,-3.816452 -1.614069,-4.271 1.746856,-2.739661 2.694703,1.227789 4.084433,3.445444 3.128465,4.992233 -1.138299,1.841807 -3.34033,0.82439 -4.875321,-2.252572 z M 111.98539,47.75 c -1.76956,-2.896959 -1.80871,-3.287734 -0.36045,-3.597369 2.21142,-0.472794 5.8072,3.278851 5.04539,5.264092 -0.94001,2.449621 -2.51219,1.8903 -4.68494,-1.666723 z M 15.666667,28.333333 C 14.941247,27.607913 14.724315,17 15.4349,17 c 0.239196,0 1.580811,0.435674 2.981367,0.968165 2.116998,0.804881 2.452584,1.43733 1.989805,3.75 L 19.84941,24.5 l 5.20064,-0.354967 5.200639,-0.354967 -0.63408,-5.395033 C 29.043112,13.51547 29.16664,13 30.909477,13 c 4.192748,0 4.955124,0.906504 3.918823,4.659677 -1.433667,5.192314 -0.794527,5.888406 5.044326,5.49381 L 45,22.806973 v -3.511894 c 0,-3.331179 0.141405,-3.476405 2.74795,-2.822203 1.511373,0.37933 2.82049,0.765614 2.909149,0.858408 0.08866,0.09279 -0.07842,2.279367 -0.371278,4.859052 -0.563983,4.967868 -2.860738,7.111485 -4.791059,4.471613 -0.885181,-1.210556 -3.081307,-1.306312 -13.444594,-0.586214 -6.812625,0.473379 -12.850897,1.324994 -13.41838,1.892477 -1.197139,1.197139 -2.030486,1.299756 -2.965121,0.365121 z m 67.747905,-7.25 C 81.960013,19.621426 84.933469,19.199506 101.25,18.55257 c 14.29926,-0.566953 18.62329,-1.058334 19.97438,-2.269882 1.55784,-1.396955 1.96828,-1.38647 4.25,0.108566 4.37142,2.86427 2.92679,3.604847 -7.22438,3.703502 -5.3625,0.05212 -15.30094,0.389616 -22.085428,0.75 -6.784485,0.360384 -12.521985,0.467744 -12.75,0.238577 z"
       id="path1" />
  </g>
</svg>
